<svg xmlns="http://www.w3.org/2000/svg" xmlns:xlink="http://www.w3.org/1999/xlink" width="219" height="236" version="1.1" viewBox="0 0 219 236"><title>modular-libraries-optics</title><defs><linearGradient id="linearGradient-1" x1="50%" x2="50%" y1=".53%" y2="100%"><stop offset=".029%" stop-color="#00D8B2"/><stop offset="100%" stop-color="#00A394"/></linearGradient><linearGradient id="linearGradient-2" x1="50%" x2="50%" y1=".501%" y2="100%"><stop offset="0%" stop-color="#1EFFD3"/><stop offset="100%" stop-color="#00B4A4"/></linearGradient><linearGradient id="linearGradient-3" x1="49.557%" x2="63.167%" y1="16.158%" y2="90.89%"><stop offset="0%" stop-color="#005948"/><stop offset="100%" stop-color="#18CDAA" stop-opacity="0"/></linearGradient><linearGradient id="linearGradient-4" x1="50.463%" x2="36.57%" y1="16.157%" y2="90.769%"><stop offset="0%" stop-color="#005948"/><stop offset="100%" stop-color="#18CDAA" stop-opacity="0"/></linearGradient><linearGradient id="linearGradient-5" x1="50%" x2="50%" y1="-7.625%" y2="76.062%"><stop offset="0%" stop-color="#132532"/><stop offset="100%" stop-color="#132532" stop-opacity="0"/></linearGradient><linearGradient id="linearGradient-6" x1="50%" x2="50%" y1="0%" y2="100%"><stop offset="0%" stop-color="#E9E9E9"/><stop offset="78.143%" stop-color="#FFF"/><stop offset="100%" stop-color="#CEE7E3"/></linearGradient><linearGradient id="linearGradient-7" x1="50%" x2="50%" y1="0%" y2="100%"><stop offset="0%" stop-color="#2AFFCE"/><stop offset="100%" stop-color="#00A18F" stop-opacity="0"/></linearGradient><linearGradient id="linearGradient-8" x1="50%" x2="50%" y1="100%" y2="16.458%"><stop offset="0%" stop-color="#2AFFCE"/><stop offset="100%" stop-color="#009A77" stop-opacity="0"/></linearGradient><linearGradient id="linearGradient-9" x1="9.55%" x2="52.458%" y1="8.255%" y2="49.89%"><stop offset="0%" stop-color="#FFF"/><stop offset="100%" stop-color="#20DCB3" stop-opacity="0"/></linearGradient><linearGradient id="linearGradient-10" x1="11.365%" x2="74.482%" y1="10.795%" y2="80.355%"><stop offset="0%" stop-color="#FFF"/><stop offset="100%" stop-color="#88FFE4" stop-opacity="0"/></linearGradient><linearGradient id="linearGradient-11" x1="11.365%" x2="74.483%" y1="10.795%" y2="80.354%"><stop offset="0%" stop-color="#FFF"/><stop offset="100%" stop-color="#88FFE4" stop-opacity="0"/></linearGradient><radialGradient id="radialGradient-12" cx="39.478%" cy="-169.29%" r="41.653%" fx="39.478%" fy="-169.29%" gradientTransform="translate(0.394781,-1.692896),scale(1.000000,0.998079),rotate(-112.533845),translate(-0.394781,1.692896)"><stop offset="0%" stop-color="#FFF"/><stop offset="100%" stop-color="#FFF" stop-opacity="0"/></radialGradient></defs><g id="Page-1" fill="none" fill-rule="evenodd" stroke="none" stroke-width="1"><g id="logo-copy" transform="translate(1.000000, 1.000000)"><g id="logo-pattern" stroke="#273244" opacity=".16"><ellipse id="path" cx="108.096" cy="123.342" rx="92.434" ry="92.996"/><rect id="path" width="153.568" height="153.688" x="31.312" y="46.008"/><polygon id="path" points="31.804 46.4 185.239 46.527 185.366 199.962 31.931 199.835" transform="translate(108.584664, 123.180952) rotate(-315.000000) translate(-108.584664, -123.180952)"/><line id="Line-2" x1="139.609" x2="21.807" y1=".276" y2="231.766" stroke-linecap="square"/><line id="Line-2-Copy" x1="196.341" x2="78.539" y1=".276" y2="231.766" stroke-linecap="square" transform="translate(137.439785, 116.000000) scale(-1, 1) translate(-137.439785, -116.000000)"/><line id="Path-6" x1="107.789" x2="178.816" y1="161.75" y2="200.346"/><line id="Path-6-Copy" x1="37.362" x2="108.042" y1="161.75" y2="200.346" transform="translate(72.882565, 181.097046) scale(-1, 1) translate(-72.882565, -181.097046)"/></g><g id="logo" transform="translate(37.084664, 58.000000)"><polygon id="path" fill="url(#linearGradient-1)" points="72 0 0 144.277 72 108.208"/><polygon id="path" fill="url(#linearGradient-2)" points="72 0 144 144.277 72 108.208"/><polygon id="path" fill="url(#linearGradient-3)" fill-opacity=".7" points="123.264 133.95 102 87.361 102 122.927" opacity=".724"/><polygon id="path" fill="url(#linearGradient-4)" fill-opacity=".7" points="20.398 133.975 42 87.167 42 123.236" opacity=".724"/><polygon id="path" fill="url(#linearGradient-5)" fill-opacity=".7" points="0 144.277 72.004 108.208 144 144.277 72 177"/><path id="path" fill="#FFF" fill-rule="nonzero" d="M72,138.265464 C91.8821647,138.265464 108,122.116779 108,102.196203 C108,82.2758384 91.8821647,66.1271541 72,66.1271541 C52.1178353,66.1271541 36,82.2758384 36,102.196203 C36,122.116779 52.1178353,138.265464 72,138.265464 Z"/><path id="path" fill="url(#linearGradient-6)" fill-rule="nonzero" d="M72,133.112682 C89.0419765,133.112682 102.857082,119.270771 102.857082,102.196203 C102.857082,85.1214234 89.0419765,71.2797242 72,71.2797242 C54.9580235,71.2797242 41.1429176,85.1214234 41.1429176,102.196203 C41.1429176,119.270771 54.9580235,133.112682 72,133.112682 Z"/><path id="path" fill="#01362C" fill-rule="nonzero" d="M72,129.248096 C86.9116235,129.248096 99,117.136688 99,102.196203 C99,87.2559295 86.9116235,75.1443105 72,75.1443105 C57.0883765,75.1443105 45,87.2559295 45,102.196203 C45,117.136688 57.0883765,129.248096 72,129.248096 Z"/><path id="path" fill="url(#linearGradient-7)" fill-rule="nonzero" d="M72,124.739517 C84.4263529,124.739517 94.5,114.646431 94.5,102.196203 C94.5,89.7457635 84.4263529,79.6528888 72,79.6528888 C59.5736471,79.6528888 49.5,89.7457635 49.5,102.196203 C49.5,114.646431 59.5736471,124.739517 72,124.739517 Z"/><path id="path" fill="url(#linearGradient-8)" fill-rule="nonzero" d="M72,115.722361 C79.4558118,115.722361 85.5,109.666551 85.5,102.196415 C85.5,94.7262779 79.4558118,88.6704684 72,88.6704684 C64.5441882,88.6704684 58.5,94.7262779 58.5,102.196415 C58.5,109.666551 64.5441882,115.722361 72,115.722361 Z"/><path id="path" fill="url(#linearGradient-9)" fill-rule="nonzero" d="M72.0002118,121.733728 C82.7697176,121.733728 91.5001412,112.986401 91.5001412,102.196203 C91.5001412,91.4057939 82.7697176,82.6586781 72.0002118,82.6586781 C61.2307059,82.6586781 52.5000706,91.4057939 52.5000706,102.196203 C52.5000706,112.986401 61.2307059,121.733728 72.0002118,121.733728 Z"/><path id="path" fill="url(#linearGradient-10)" fill-rule="nonzero" d="M72,111.213571 C76.9705412,111.213571 81,107.176294 81,102.196203 C81,97.2161119 76.9705412,93.1790467 72,93.1790467 C67.0294588,93.1790467 63,97.2161119 63,102.196203 C63,107.176294 67.0294588,111.213571 72,111.213571 Z" opacity=".684"/><path id="path" fill="url(#linearGradient-11)" fill-rule="nonzero" d="M66.7501412,100.693414 C69.6496235,100.693414 72.0002118,98.338389 72.0002118,95.4333358 C72.0002118,92.5282826 69.6496235,90.1732573 66.7501412,90.1732573 C63.8506588,90.1732573 61.5000706,92.5282826 61.5000706,95.4333358 C61.5000706,98.338389 63.8506588,100.693414 66.7501412,100.693414 Z" opacity=".684"/><path id="path" fill="url(#radialGradient-12)" d="M49.5127059,101.431793 C49.9008706,112.710011 59.1486353,121.733728 70.5000706,121.733728 C82.098,121.733728 91.4999294,112.313627 91.4999294,100.693203 C91.4999294,89.3201744 82.4937882,80.0545636 71.2370118,79.6655866 C71.4902824,79.6571214 71.7446118,79.6528888 72,79.6528888 C84.4263529,79.6528888 94.5,89.7457635 94.5,102.196203 C94.5,114.646431 84.4263529,124.739517 72,124.739517 C59.5736471,124.739517 49.5,114.646431 49.5,102.196203 C49.5,101.940342 49.5042353,101.685538 49.5127059,101.431793 Z" opacity=".268"/></g></g></g></svg>