<svg xmlns="http://www.w3.org/2000/svg" xmlns:xlink="http://www.w3.org/1999/xlink" width="219" height="238" version="1.1" viewBox="0 0 219 238"><title>modular-libraries-core</title><defs><linearGradient id="linearGradient-1" x1="50%" x2="50%" y1="-7.625%" y2="76.062%"><stop offset="0%" stop-color="#132532"/><stop offset="100%" stop-color="#132532" stop-opacity="0"/></linearGradient><linearGradient id="linearGradient-2" x1="50.392%" x2="48.888%" y1="8.801%" y2="99.306%"><stop offset="0%" stop-color="#379CE6"/><stop offset="100%" stop-color="#006FD0"/></linearGradient><linearGradient id="linearGradient-3" x1="49.608%" x2="51.122%" y1="8.801%" y2="99.869%"><stop offset="0%" stop-color="#5BBAFF"/><stop offset="99.937%" stop-color="#1182E5"/></linearGradient><linearGradient id="linearGradient-4" x1="100%" x2="100%" y1="0%" y2="94.929%"><stop offset="0%" stop-color="#00567F"/><stop offset="100%" stop-color="#0075AE" stop-opacity=".09"/></linearGradient><linearGradient id="linearGradient-5" x1="0%" x2="0%" y1="0%" y2="94.929%"><stop offset="0%" stop-color="#005B87"/><stop offset="100%" stop-color="#0075AE" stop-opacity=".09"/></linearGradient><linearGradient id="linearGradient-6" x1="48.126%" x2="60.567%" y1="36.883%" y2="55.039%"><stop offset="0%" stop-color="#F1F1F1"/><stop offset="100%" stop-color="#FFF"/></linearGradient><linearGradient id="linearGradient-7" x1="44.331%" x2="62.91%" y1="27.56%" y2="55.1%"><stop offset="0%" stop-color="#F4F4F4"/><stop offset="99.979%" stop-color="#EAEAEA"/></linearGradient><linearGradient id="linearGradient-8" x1="45.561%" x2="66.058%" y1="10.001%" y2="64.673%"><stop offset="0%" stop-color="#FFF"/><stop offset="99.979%" stop-color="#E6E6E6"/></linearGradient><linearGradient id="linearGradient-9" x1="50%" x2="50%" y1="100%" y2="0%"><stop offset="0%" stop-color="#EDEDED"/><stop offset="100%" stop-color="#CECECE"/></linearGradient><linearGradient id="linearGradient-10" x1="52.856%" x2="36.458%" y1="64.225%" y2="39.934%"><stop offset="0%" stop-color="#5EB4FF"/><stop offset="99.979%" stop-color="#1C8AEB"/><stop offset="100%" stop-color="#2D9DFF"/></linearGradient><linearGradient id="linearGradient-11" x1="47.376%" x2="62.959%" y1="73.264%" y2="31.437%"><stop offset="0%" stop-color="#2185E8"/><stop offset="99.979%" stop-color="#036ED8"/></linearGradient><linearGradient id="linearGradient-12" x1="50%" x2="50%" y1="0%" y2="100%"><stop offset="0%" stop-color="#4AAAFF"/><stop offset="100%" stop-color="#73BEFF"/></linearGradient></defs><g id="Page-1" fill="none" fill-rule="evenodd" stroke="none" stroke-width="1"><g id="logo" transform="translate(1.000000, 1.000000)"><g id="logo-pattern" stroke="#273244" opacity=".16"><ellipse id="path" cx="108.096" cy="123.342" rx="92.434" ry="92.996"/><rect id="path" width="153.568" height="153.688" x="31.312" y="46.008"/><polygon id="path" points="31.804 46.4 185.239 46.527 185.366 199.962 31.931 199.835" transform="translate(108.584664, 123.180952) rotate(-315.000000) translate(-108.584664, -123.180952)"/><line id="Line-2" x1="139.609" x2="21.807" y1=".276" y2="231.766" stroke-linecap="square"/><line id="Line-2-Copy" x1="196.341" x2="78.539" y1=".276" y2="231.766" stroke-linecap="square" transform="translate(137.439785, 116.000000) scale(-1, 1) translate(-137.439785, -116.000000)"/><line id="Path-6" x1="107.789" x2="178.816" y1="161.75" y2="200.346"/><line id="Path-6-Copy" x1="37.362" x2="108.042" y1="161.75" y2="200.346" transform="translate(72.882565, 181.097046) scale(-1, 1) translate(-72.882565, -181.097046)"/></g><g id="path" transform="translate(37.084664, 62.000000)"><polygon fill="url(#linearGradient-1)" fill-opacity=".7" points="0 142.549 72.004 106.78 144 142.549 72 175"/><polygon fill="url(#linearGradient-2)" points="72 0 0 142.373 72 106.78"/><polygon fill="url(#linearGradient-3)" points="72 0 144 142.373 72 106.78"/><line x1="72" x2="72" y1="86.017" y2="96.893" stroke="#2D9DFF" stroke-width="4.142"/><line x1="55.233" x2="65.096" y1="115.678" y2="108.757" stroke="#2D9DFF" stroke-width="4.142"/><line x1="88.767" x2="78.904" y1="115.678" y2="108.757" stroke="#2D9DFF" stroke-width="4.142"/><path stroke="#2D9DFF" stroke-width="4.142" d="M71.5069569,112.711864 C76.1370303,112.711864 79.890411,108.949454 79.890411,104.30791 C79.890411,99.6665839 76.1370303,95.9039548 71.5069569,95.9039548 C66.8768836,95.9039548 63.1232877,99.6665839 63.1232877,104.30791 C63.1232877,108.949454 66.8768836,112.711864 71.5069569,112.711864 Z"/><polygon fill="url(#linearGradient-4)" fill-opacity=".7" points="37.479 92.938 37.479 123.732 17.753 133.475" opacity=".739"/><polygon fill="url(#linearGradient-5)" fill-opacity=".7" points="106.521 92.938 106.521 123.557 126.247 133.475" opacity=".659"/><polygon fill="#FFF" points="71.995 73.164 106.521 93.927 106.51 135.452 71.995 156.215 37.479 135.452 37.479 93.927"/><polygon fill="url(#linearGradient-6)" points="106.521 93.927 72 114.175 72 156.215 106.51 135.452"/><polygon fill="url(#linearGradient-7)" points="51.288 127.542 72 115.302 72 88.983 51.288 101.946"/><polygon fill="url(#linearGradient-8)" points="92.712 127.542 72 115.302 72 88.983 92.712 101.836"/><polygon fill="url(#linearGradient-9)" points="71.504 139.407 50.301 127.048 71.507 114.689 92.712 127.034"/><polygon fill="url(#linearGradient-10)" points="86.795 104.802 72 113.591 72 132.486 86.795 123.179"/><polygon fill="url(#linearGradient-11)" points="57.205 104.802 72 113.591 72 132.486 57.205 123.258"/><polygon fill="url(#linearGradient-12)" points="72.002 95.904 86.795 104.802 72 113.701 57.205 104.812"/></g></g></g></svg>