<svg xmlns="http://www.w3.org/2000/svg" xmlns:xlink="http://www.w3.org/1999/xlink" width="219" height="236" version="1.1" viewBox="0 0 219 236"><title>modular-libraries-fx</title><defs><linearGradient id="linearGradient-1" x1="50%" x2="50%" y1=".501%" y2="100%"><stop offset="0%" stop-color="#8D7979"/><stop offset="100%" stop-color="#655656"/></linearGradient><linearGradient id="linearGradient-2" x1="50%" x2="50%" y1=".501%" y2="100%"><stop offset="0%" stop-color="#C0A4A4"/><stop offset="100%" stop-color="#726363"/></linearGradient><linearGradient id="linearGradient-3" x1="100%" x2="100%" y1="-21.334%" y2="156.379%"><stop offset="0%" stop-color="#3E3333"/><stop offset="100%" stop-color="#756A6A" stop-opacity="0"/></linearGradient><linearGradient id="linearGradient-4" x1="100%" x2="100%" y1="-23.28%" y2="155.119%"><stop offset="0%" stop-color="#3E3333"/><stop offset="100%" stop-color="#756A6A" stop-opacity="0"/></linearGradient><linearGradient id="linearGradient-5" x1="50%" x2="50%" y1="-7.625%" y2="76.062%"><stop offset="0%" stop-color="#132532"/><stop offset="100%" stop-color="#132532" stop-opacity="0"/></linearGradient><linearGradient id="linearGradient-6" x1="50.252%" x2="46.075%" y1="0%" y2="58.98%"><stop offset="0%" stop-color="#CBCBCB"/><stop offset="100%" stop-color="#FFF"/></linearGradient><linearGradient id="linearGradient-7" x1="49.731%" x2="54.342%" y1="100%" y2="37.977%"><stop offset="0%" stop-color="#CBCBCB"/><stop offset="100%" stop-color="#FFF"/></linearGradient></defs><g id="Page-1" fill="none" fill-rule="evenodd" stroke="none" stroke-width="1"><g id="logo-copy" transform="translate(1.000000, 1.000000)"><g id="logo-pattern" stroke="#273244" opacity=".16"><ellipse id="path" cx="108.096" cy="123.342" rx="92.434" ry="92.996"/><rect id="path" width="153.568" height="153.688" x="31.312" y="46.008"/><polygon id="path" points="31.804 46.4 185.239 46.527 185.366 199.962 31.931 199.835" transform="translate(108.584664, 123.180952) rotate(-315.000000) translate(-108.584664, -123.180952)"/><line id="Line-2" x1="139.609" x2="21.807" y1=".276" y2="231.766" stroke-linecap="square"/><line id="Line-2-Copy" x1="196.341" x2="78.539" y1=".276" y2="231.766" stroke-linecap="square" transform="translate(137.439785, 116.000000) scale(-1, 1) translate(-137.439785, -116.000000)"/><line id="Path-6" x1="107.789" x2="178.816" y1="161.75" y2="200.346"/><line id="Path-6-Copy" x1="37.362" x2="108.042" y1="161.75" y2="200.346" transform="translate(72.882565, 181.097046) scale(-1, 1) translate(-72.882565, -181.097046)"/></g><g id="logo" transform="translate(37.084664, 57.000000)"><polygon id="path" fill="url(#linearGradient-1)" points="72 0 0 145.092 72 108.819"/><polygon id="path" fill="url(#linearGradient-2)" points="72 0 144 145.092 72 108.819"/><polygon id="path" fill="url(#linearGradient-3)" fill-opacity=".7" points="112.449 129.168 102 96.728 92.211 119.003"/><polygon id="path" fill="url(#linearGradient-4)" fill-opacity=".7" points="87.761 102.851 72.052 55.921 72.052 102.851"/><polygon id="path" fill="url(#linearGradient-5)" fill-opacity=".7" points="0 145.092 72.004 108.819 144 145.092 72 178"/><polygon id="path" fill="#FFF" points="72.022 164.797 102 96.728 72 102.773"/><polygon id="path" fill="url(#linearGradient-6)" points="72.022 164.797 85.089 115.643 72 117.944"/><polygon id="path" fill="#FFF" points="71.978 55.921 42 123.99 72 117.944"/><polygon id="path" fill="url(#linearGradient-7)" points="71.978 55.921 58.64 105.295 72 102.773"/></g></g></g></svg>