<svg xmlns="http://www.w3.org/2000/svg" xmlns:xlink="http://www.w3.org/1999/xlink" width="219" height="236" version="1.1" viewBox="0 0 219 236"><title>modular-libraries-meta</title><defs><linearGradient id="linearGradient-1" x1="50%" x2="50%" y1="9.975%" y2="99.779%"><stop offset="0%" stop-color="#CE1010"/><stop offset="99.918%" stop-color="#9D1212"/></linearGradient><linearGradient id="linearGradient-2" x1="50%" x2="50%" y1="9.63%" y2="99.714%"><stop offset="0%" stop-color="#F63F18"/><stop offset="99.937%" stop-color="#950F0F"/></linearGradient><linearGradient id="linearGradient-3" x1="50%" x2="50%" y1="-7.625%" y2="76.062%"><stop offset="0%" stop-color="#132532"/><stop offset="100%" stop-color="#132532" stop-opacity="0"/></linearGradient><linearGradient id="linearGradient-4" x1="50%" x2="50%" y1="0%" y2="91.609%"><stop offset="0%" stop-color="#E5E5E5"/><stop offset="100%" stop-color="#FFF"/></linearGradient></defs><g id="Page-1" fill="none" fill-rule="evenodd" stroke="none" stroke-width="1"><g id="logo-copy" transform="translate(1.000000, 1.000000)"><g id="logo-pattern" stroke="#273244" opacity=".16"><ellipse id="path" cx="108.096" cy="123.342" rx="92.434" ry="92.996"/><rect id="path" width="153.568" height="153.688" x="31.312" y="46.008"/><polygon id="path" points="31.804 46.4 185.239 46.527 185.366 199.962 31.931 199.835" transform="translate(108.584664, 123.180952) rotate(-315.000000) translate(-108.584664, -123.180952)"/><line id="Line-2" x1="139.609" x2="21.807" y1=".276" y2="231.766" stroke-linecap="square"/><line id="Line-2-Copy" x1="196.341" x2="78.539" y1=".276" y2="231.766" stroke-linecap="square" transform="translate(137.439785, 116.000000) scale(-1, 1) translate(-137.439785, -116.000000)"/><line id="Path-6" x1="107.789" x2="178.816" y1="161.75" y2="200.346"/><line id="Path-6-Copy" x1="37.362" x2="108.042" y1="161.75" y2="200.346" transform="translate(72.882565, 181.097046) scale(-1, 1) translate(-72.882565, -181.097046)"/></g><g id="logo" transform="translate(37.084664, 58.000000)"><polygon id="path" fill="url(#linearGradient-1)" points="72 0 0 144.277 74.753 106.893"/><polygon id="path" fill="url(#linearGradient-2)" points="72 0 144 144.277 72 108.208"/><polygon id="path" fill="url(#linearGradient-3)" fill-opacity=".7" points="0 144.277 72.004 108.208 144 144.277 72 177"/><polygon id="path" fill="#FFF" points="72.119 72.138 36 144.277 73.5 125.585"/><polygon id="path" fill="url(#linearGradient-4)" points="72 72.138 108 144.277 72 126.242"/></g></g></g></svg>