<svg xmlns="http://www.w3.org/2000/svg" xmlns:xlink="http://www.w3.org/1999/xlink" width="1504" height="700" version="1.1" viewBox="0 0 1504 700"><title>quickstart-pattern</title><g id="quickstart-pattern" fill="none" fill-rule="evenodd" stroke="none" stroke-linecap="round" stroke-linejoin="round" stroke-width="1" opacity=".32"><g id="pattern" stroke="#273244" transform="translate(-230.000000, -0.499600)"><line x1="970.159" x2="970.159" y1="589.224" y2="677.83" stroke-dasharray="70 40 40 10 5 10"/><line x1="1399.816" x2="1399.816" y1="517.981" y2="700.251" stroke-dasharray="70 40 40 10 5 10"/><line x1="1399.816" x2="1399.816" y1="152.329" y2="213.388" stroke-dasharray="70 40 40 10 5 10"/><line x1="928.553" x2="1164.406" y1="288.828" y2="407.619" stroke-dasharray="100 20 40 10 5 10"/><line x1="850.083" x2="1035.964" y1="555.353" y2="651.997" stroke-dasharray="70 40 40 10 5 10"/><line x1="1576.918" x2="1400.408" y1="345.829" y2="436.836" stroke-dasharray="100 20 40 10 5 10"/><line x1="1757.71" x2="1641.389" y1="198.384" y2="258.803" stroke-dasharray="100 20 40 10 5 10"/><line x1="614.204" x2="603.435" y1=".001" y2="5.59" stroke-dasharray="100 20 40 10 5 10"/><line x1="339.509" x2="542.594" y1="213.388" y2="322.552" stroke-dasharray="100 20 40 10 5 10"/><line x1="1203.444" x2="824.254" y1="410.329" y2="614.719" stroke-dasharray="70 40 40 10 5 10"/><line x1="1095.85" x2="1018.116" y1="312.902" y2="353.904" stroke-dasharray="100 20 40 10 5 10"/><line x1="850.083" x2="1035.964" y1="555.353" y2="651.997" stroke-dasharray="70 40 40 10 5 10"/><line x1="790.631" x2="1075.564" y1="331.116" y2="479.26" stroke-dasharray="100 20 40 10 5 10"/><line x1="1148.087" x2="904.812" y1="524.159" y2="651.996" stroke-dasharray="70 40 40 10 5 10"/><line x1="1193.587" x2="1313.348" y1="575.953" y2="638.427" stroke-dasharray="70 40 40 10 5 10"/><line x1="1655.136" x2="1510.009" y1="551.534" y2="626.914" stroke-dasharray="70 40 40 10 5 10"/><line x1="1282" x2="1466.25" y1="579.594" y2="675.536" stroke-dasharray="70 40 40 10 5 10"/><line x1="1624.537" x2="1655.136" y1="630.774" y2="646.683" stroke-dasharray="70 40 40 10 5 10"/><line x1="1446.38" x2="1335.098" y1="617.06" y2="675.537" stroke-dasharray="70 40 40 10 5 10"/><line x1="204.991" x2="380.378" y1="52.865" y2="144.054" stroke-dasharray="100 20 40 10 5 10"/><line x1="346.559" x2="204.991" y1="2.467" y2="76.859" stroke-dasharray="100 20 40 10 5 10"/><line x1="707.807" x2="777.29" y1=".001" y2="36.127" stroke-dasharray="100 20 40 10 5 10"/><line x1="805.806" x2="849.082" y1=".822" y2="23.424" stroke-dasharray="100 20 40 10 5 10"/><line x1="805.806" x2="738.206" y1=".822" y2="37.234" stroke-dasharray="100 20 40 10 5 10"/><line x1="438.882" x2="717.535" y1="65.812" y2="210.69" stroke-dasharray="100 20 40 10 5 10"/><line x1="245.69" x2="374.162" y1=".001" y2="66.797" stroke-dasharray="100 20 40 10 5 10"/><line x1="709.131" x2="558.271" y1="192.343" y2="271.617" stroke-dasharray="100 20 40 10 5 10"/><line x1="781.044" x2="724.005" y1="152.323" y2="182.799" stroke-dasharray="100 20 40 10 5 10"/><line x1="486.87" x2="283.352" y1="67.159" y2="174.102" stroke-dasharray="100 20 40 10 5 10"/><line x1="243.406" x2="65.602" y1="236.163" y2="144.053" stroke-dasharray="100 20 40 10 5 10"/><line x1="850.083" x2="345.067" y1="555.353" y2="288.829" stroke-dasharray="70 40 40 10 5 10"/><line x1="562.541" x2="419.071" y1="74.393" y2=".001" stroke-dasharray="100 20 40 10 5 10"/><line x1="1109.518" x2="865.591" y1="266.876" y2="144.053" stroke-dasharray="100 20 40 10 5 10"/><line x1="1638.469" x2="1876.951" y1=".001" y2="123.993" stroke-dasharray="100 20 40 10 5 10"/><line x1="695.745" x2="695.745" y1="215.631" y2="155.271" stroke-dasharray="100 20 40 10 5 10"/><line x1="805.806" x2="805.806" y1="98.812" y2=".822" stroke-dasharray="100 20 40 10 5 10"/><line x1="44.373" x2="367.631" y1="442.75" y2="610.818" stroke-dasharray="70 40 40 10 5 10"/><line x1="430.309" x2="468.54" y1="635.384" y2="655.262" stroke-dasharray="70 40 40 10 5 10"/><line x1="447.272" x2="538.69" y1="442.763" y2="490.292" stroke-dasharray="100 20 40 10 5 10"/><line x1="249.984" x2="204.991" y1="610.819" y2="634.463" stroke-dasharray="70 40 40 10 5 10"/><line x1="357.715" x2="274.402" y1="554.208" y2="597.987" stroke-dasharray="70 40 40 10 5 10"/><line x1="519.53" x2="488.793" y1="471.658" y2="487.808" stroke-dasharray="70 40 40 10 5 10"/><line x1="862.737" x2="558.27" y1="288.828" y2="448.82" stroke-dasharray="70 40 40 10 5 10"/><line x1="462.336" x2="598.811" y1="141.013" y2="211.969" stroke-dasharray="100 20 40 10 5 10"/><line x1="491.526" x2="408.089" y1="295.102" y2="338.947" stroke-dasharray="100 20 40 10 5 10"/><line x1="603.435" x2="517.411" y1="186.776" y2="231.98" stroke-dasharray="100 20 40 10 5 10"/><line x1="875.235" x2="491.432" y1="410.329" y2="612.011" stroke-dasharray="70 40 40 10 5 10"/><line x1="331.341" x2="54.075" y1="326.089" y2="471.787" stroke-dasharray="100 20 40 10 5 10"/><line x1="673.446" x2="206.483" y1="634.462" y2="392.333" stroke-dasharray="70 40 40 10 5 10"/><line x1="857.48" x2="711.109" y1="668.775" y2="592.879" stroke-dasharray="70 40 40 10 5 10"/><line x1="308.048" x2="308.048" y1="579.594" y2="445.012" stroke-dasharray="100 20 40 10 5 10"/><line x1="424.12" x2="424.12" y1="369.736" y2="330.621" stroke-dasharray="100 20 40 10 5 10"/><line x1="1182.936" x2="1341.378" y1="171.075" y2="253.452" stroke-dasharray="100 20 40 10 5 10"/><line x1="1555.788" x2="1639.837" y1="128.869" y2="172.567" stroke-dasharray="100 20 40 10 5 10"/><line x1="1614.33" x2="1463.826" y1="138.942" y2="218.03" stroke-dasharray="100 20 40 10 5 10"/><line x1="1750.461" x2="1664.587" y1=".001" y2="45.133" stroke-dasharray="100 20 40 10 5 10"/><line x1="1313.348" x2="1175.662" y1="61.221" y2="133.403" stroke-dasharray="100 20 40 10 5 10"/><line x1="1666.893" x2="1797.06" y1="117.761" y2="185.438" stroke-dasharray="100 20 40 10 5 10"/><line x1="1440.398" x2="1569.263" y1=".001" y2="67.001" stroke-dasharray="100 20 40 10 5 10"/><line x1="1531.536" x2="1721.585" y1=".001" y2="98.812" stroke-dasharray="100 20 40 10 5 10"/><line x1="1585.849" x2="1473.753" y1="288.828" y2="347.732" stroke-dasharray="100 20 40 10 5 10"/><line x1="1439.968" x2="1400.964" y1="129.49" y2="150.329" stroke-dasharray="100 20 40 10 5 10"/><line x1="1391.306" x2="1129.203" y1="155.271" y2="293.001" stroke-dasharray="100 20 40 10 5 10"/><line x1="1662.008" x2="1143.499" y1="569.976" y2="305.77" stroke-dasharray="70 40 40 10 5 10"/><line x1="1794.944" x2="1732.655" y1="484.426" y2="452.686" stroke-dasharray="100 20 40 10 5 10"/><line x1="1816.39" x2="1107.219" y1="368.386" y2="0" stroke-dasharray="100 20 40 10 5 10"/><line x1="1182.936" x2="1182.936" y1="263.391" y2="117.761" stroke-dasharray="100 20 40 10 5 10"/><line x1="1594.392" x2="1594.392" y1="210.69" y2="138.251" stroke-dasharray="100 20 40 10 5 10"/><line x1="1428.779" x2="1428.779" y1="62.086" y2=".001" stroke-dasharray="100 20 40 10 5 10"/><line x1="1473.753" x2="1473.753" y1="49.407" y2=".002" stroke-dasharray="100 20 40 10 5 10"/><line x1="940.719" x2="729.191" y1="140.503" y2="247.391" stroke-dasharray="100 20 40 10 5 10"/><line x1="1247.521" x2="1029.475" y1=".001" y2="110.207" stroke-dasharray="100 20 40 10 5 10"/><line x1="1313.348" x2="1092.633" y1="107.075" y2="218.03" stroke-dasharray="100 20 40 10 5 10"/><path stroke-dasharray="100 20 40 10 5 10" d="M1104.3993,190.2982 C1104.3993,218.4192 1084.5333,229.7462 1060.0273,215.5972 C1035.5203,201.4482 1015.6543,167.1822 1015.6543,139.0612 C1015.6543,110.9412 1035.5203,99.6132 1060.0273,113.7632 C1084.5333,127.9112 1104.3993,162.1782 1104.3993,190.2982 Z"/><path stroke-dasharray="100 20 40 10 5 10" d="M1392.4724,0.212313184 C1392.5362,1.368831 1392.5686,2.51706717 1392.5686,3.6553 C1392.5686,8.9383 1391.8696,13.6303 1390.5756,17.6753"/><line x1="264.748" x2="13.821" y1="145.475" y2="271.618" stroke-dasharray="100 20 40 10 5 10"/><line x1="325.103" x2="76.978" y1="255.536" y2="379.438" stroke-dasharray="100 20 40 10 5 10"/><path stroke-dasharray="100 20 40 10 5 10" d="M339.5086,226.2454 C339.5086,254.4994 319.5486,265.8794 294.9256,251.6634 C270.3036,237.4474 250.3426,203.0184 250.3426,174.7654 C250.3426,146.5114 270.3036,135.1304 294.9256,149.3464 C319.5486,163.5614 339.5086,197.9904 339.5086,226.2454 Z"/><line x1="1642.295" x2="1887.687" y1="345.829" y2="473.413" stroke-dasharray="100 20 40 10 5 10"/><line x1="1872.59" x2="1607.088" y1="199.702" y2="339.218" stroke-dasharray="100 20 40 10 5 10"/><line x1="1588.278" x2="1865.998" y1="456.208" y2="600.601" stroke-dasharray="70 40 40 10 5 10"/><line x1="1916.382" x2="1719.391" y1="420.613" y2="524.128" stroke-dasharray="100 20 40 10 5 10"/><line x1="1750.461" x2="1686.919" y1="617.06" y2="584.142" stroke-dasharray="70 40 40 10 5 10"/><line x1="1207.902" x2="1187.73" y1="490.301" y2="500.902" stroke-dasharray="70 40 40 10 5 10"/><line x1="1683.393" x2="1683.393" y1="393.342" y2="299.258" stroke-dasharray="100 20 40 10 5 10"/><path stroke-dasharray="100 20 40 10 5 10" d="M1717.4696,239.469 C1717.4696,251.148 1709.2186,255.851 1699.0406,249.975 C1688.8646,244.1 1680.6136,229.868 1680.6136,218.191 C1680.6136,206.512 1688.8646,201.808 1699.0406,207.684 C1709.2186,213.56 1717.4696,227.79 1717.4696,239.469 Z"/><line x1="865.954" x2="935.391" y1="32.095" y2="68.197" stroke-dasharray="100 20 40 10 5 10"/></g></g></svg>